<svg width="144" height="48" viewBox="0 0 144 48" fill="none" xmlns="http://www.w3.org/2000/svg">
<path d="M9.69401 39.3129C9.16525 39.2393 8.63648 39.1657 8.19585 38.9448C6.96207 38.4295 6.4333 37.4724 6.4333 36.0736C6.4333 35.3374 6.60956 34.5276 6.87394 33.5706C7.13832 32.6135 7.49083 31.5092 8.01959 30.4049C9.07712 27.9018 10.4872 25.546 12.0734 23.1902C10.8397 23.2638 9.78214 23.411 9.07712 23.6319C8.3721 23.8528 7.84334 24.2945 7.66708 24.8098C7.75521 24.8098 7.75521 24.8098 7.84334 24.8834C7.84334 24.9571 7.84334 25.0307 7.93147 25.1779C8.01959 25.3988 8.10772 25.6196 8.10772 25.8405C8.10772 26.2086 7.93147 26.5031 7.49083 26.7239C7.05019 26.9448 6.60956 27.092 5.99267 27.092C5.28765 27.092 4.75888 26.9448 4.31825 26.6503C3.87761 26.3558 3.70135 25.9141 3.70135 25.2515C3.70135 24.7362 3.87761 24.2209 4.31825 23.7791C4.67076 23.2638 5.19952 22.8957 5.90454 22.5276C6.60956 22.1595 7.4027 21.865 8.3721 21.7178C9.3415 21.4969 10.3109 21.4233 11.3684 21.4233C11.8972 21.4233 12.6022 21.4233 13.3072 21.4969C15.4223 18.6994 17.5373 16.4908 19.6524 14.9448C22.12 13.1043 24.4113 12.1472 26.4382 12.1472C27.672 12.1472 28.6414 12.2945 29.4345 12.589L23.53 35.8528H18.0661L20.9743 24.3681C20.093 24.0736 19.2118 23.7791 18.3305 23.5583C17.6255 23.4111 16.8323 23.2638 15.8629 23.1902C14.3648 25.8405 13.2191 28.4908 12.3378 31.1411C11.3684 33.865 10.9278 36 10.9278 37.6933C10.9278 38.5031 11.104 39.092 11.4566 39.4601C10.8397 39.4601 10.2228 39.3865 9.69401 39.3129ZM23.53 14.3558C22.4725 14.8712 21.2387 15.7546 20.093 17.1534C18.9474 18.4785 17.8017 20.0982 16.7442 21.865C18.5067 22.1595 20.0049 22.5276 21.3268 22.9693L23.53 14.3558Z" fill="#2196F3"/>
<path d="M43.623 35.7055C43.2705 35.3374 43.0061 34.8957 43.0061 34.3068C43.0061 33.865 43.0943 33.2761 43.2705 32.6871C43.4468 32.0982 43.7111 31.2884 44.0637 30.2577C44.4162 29.227 44.6805 28.4172 44.7687 27.7546C44.8568 27.092 45.0331 26.5031 45.0331 25.9877C45.0331 25.3252 44.8568 24.8098 44.5043 24.4417C44.1518 24.0736 43.5349 23.8528 42.7417 23.8528C42.3011 23.8528 41.8605 23.9264 41.508 24L38.5116 35.9264H33.0477L38.5116 14.4295C36.8372 15.0184 35.5153 15.9018 34.5459 17.0798C33.6646 18.2577 33.1359 19.6564 33.1359 21.3497C33.1359 22.0123 33.224 22.5276 33.4003 22.8957C33.4884 23.043 33.4884 23.1166 33.5765 23.2638C33.6646 23.3374 33.6646 23.4111 33.6646 23.4847C32.3427 23.4847 31.2852 23.2638 30.6683 22.8221C29.9633 22.3068 29.6108 21.5706 29.6108 20.3926C29.6108 19.7301 29.787 19.0675 30.1395 18.3313C30.4921 17.6687 31.0208 17.0061 31.6377 16.3436C32.2546 15.7546 33.0477 15.1657 33.8409 14.6503C34.7222 14.135 35.6034 13.6933 36.5728 13.3252C38.6879 12.5153 40.8029 12.1472 42.8299 12.1472C43.3586 12.1472 43.8874 12.1472 44.328 12.2209L41.8605 21.6442C42.3011 20.3926 43.0943 19.0675 44.0637 17.6687C44.8568 16.5644 45.6499 15.6074 46.355 14.8712C47.2362 13.9141 48.2056 13.2515 49.0869 12.8098C50.0563 12.3681 50.9376 12.1472 51.907 12.1472C52.2595 12.1472 52.612 12.2209 52.9645 12.2945C53.317 12.3681 53.5814 12.5153 53.8458 12.6626C54.3745 13.0307 54.7271 13.546 54.7271 14.2086C54.7271 14.9448 54.4627 15.5338 53.9339 15.9755C53.4933 16.2699 52.9645 16.4908 52.2595 16.4908C51.202 16.4908 50.4088 16.0491 50.0563 15.2393C48.7344 15.9018 47.5887 16.7853 46.5312 18.0368C45.4737 19.2147 44.5043 20.6871 43.5349 22.454C43.9755 22.454 44.2399 22.454 44.4162 22.454H45.1212C46.8837 22.454 48.1175 22.7485 48.8225 23.4111C49.4394 23.9264 49.7919 24.7362 49.7919 25.8405C49.7919 26.4295 49.7038 27.0184 49.5275 27.7546C49.3513 28.4172 49.175 29.227 48.8225 30.1104C48.47 31.1411 48.2938 31.8773 48.1175 32.3926C47.9413 32.908 47.9413 33.4233 47.9413 33.865C47.9413 34.3804 48.1175 34.8221 48.3819 35.1902C48.6463 35.5583 48.9988 35.8528 49.4394 36C47.9413 36.3681 46.7075 36.5153 45.6499 36.5153C44.8568 36.3681 44.0637 36.1472 43.623 35.7055Z" fill="#2196F3"/>
<path d="M75.7014 30.1841H68.9156L67.5055 35.043H64.3329L70.9425 14.2822H73.6744L80.284 35.043H77.1114L75.7014 30.1841ZM69.7087 27.3129H74.8201L72.2644 18.6994L69.7087 27.3129Z" fill="black"/>
<path d="M85.131 35.0429H82.2228V13.1779H85.131V35.0429Z" fill="black"/>
<path d="M94.0318 35.3374C92.1811 35.3374 90.683 34.6749 89.5373 33.2761C88.3917 31.8773 87.7748 30.0368 87.7748 27.7546V27.3129C87.7748 25.7669 88.0392 24.3681 88.5679 23.1902C89.0967 22.0123 89.8017 21.0552 90.683 20.3926C91.5643 19.7301 92.6218 19.362 93.6793 19.362C95.4419 19.362 96.8519 20.0245 97.8213 21.3497C98.7907 22.6749 99.2313 24.589 99.2313 27.0184V28.4172H90.7711C90.8592 29.6687 91.2117 30.6994 91.8286 31.4356C92.4455 32.1718 93.2387 32.5399 94.2081 32.5399C95.53 32.5399 96.6756 31.8773 97.4688 30.6258L99.0551 32.3926C98.5263 33.3497 97.8213 34.0123 96.94 34.5276C96.0587 35.043 95.0893 35.3374 94.0318 35.3374ZM93.6793 22.0859C92.8862 22.0859 92.2693 22.454 91.7405 23.1166C91.2117 23.7791 90.9474 24.7362 90.7711 25.9141H96.3231V25.6933C96.235 24.5153 95.9706 23.6319 95.53 23.043C95.0893 22.3804 94.4725 22.0859 93.6793 22.0859Z" fill="black"/>
<path d="M106.193 24.6626L108.661 19.5828H111.922L107.956 27.1656L112.098 34.9693H108.837L106.193 29.6687L103.638 34.9693H100.377L104.519 27.1656L100.553 19.5828H103.814L106.193 24.6626Z" fill="black"/>
<path d="M119.236 26.0614L117.209 28.5644V35.043H114.125V14.2822H117.209V24L118.884 21.5706L123.995 14.2822H127.696L121.175 23.4847L128.049 35.043H124.436L119.236 26.0614Z" fill="black"/>
<path d="M137.302 35.043C137.214 34.7485 137.038 34.2331 136.95 33.5706C135.98 34.7485 134.835 35.2638 133.513 35.2638C132.191 35.2638 131.133 34.8221 130.34 33.9387C129.547 33.0552 129.107 31.9509 129.107 30.6258C129.107 29.0061 129.635 27.7546 130.693 26.8712C131.75 25.9877 133.16 25.546 135.099 25.546H136.862V24.5153C136.862 23.7055 136.685 23.043 136.333 22.6012C135.98 22.0859 135.364 21.865 134.57 21.865C133.865 21.865 133.337 22.0859 132.896 22.454C132.455 22.8221 132.279 23.3374 132.279 23.9264H129.371C129.371 23.1166 129.635 22.3068 130.076 21.5706C130.517 20.8344 131.222 20.2454 132.015 19.8037C132.808 19.362 133.777 19.1411 134.747 19.1411C136.245 19.1411 137.479 19.5828 138.36 20.4663C139.241 21.3497 139.77 22.6749 139.77 24.2945V31.2147C139.77 32.6135 139.946 33.7178 140.299 34.5276V34.7485H137.302V35.043ZM134.042 32.5399C134.659 32.5399 135.187 32.3926 135.716 32.0246C136.245 31.6565 136.597 31.2147 136.862 30.6994V27.8282H135.275C134.218 27.8282 133.337 28.0491 132.808 28.4908C132.279 28.9325 132.015 29.5951 132.015 30.4049C132.015 31.0675 132.191 31.5828 132.543 32.0246C132.896 32.319 133.425 32.5399 134.042 32.5399Z" fill="black"/>
<path d="M62.3941 12.4417L56.9302 36.8834" stroke="#428ECC" stroke-miterlimit="10"/>
</svg>
